# xmcd
#
# Track frame offsets:
#	182
#	34225
#	59915
#	83620
#	119565
#	137585
#
# Disc length: 2139 seconds
#
# Revision: 1
# Processed by: cddbd v1.5.1PL2 Copyright (c) Steve Scherf et al.
# Submitted via: audiograbber 1.83.01
#
DISCID=53085906
DTITLE=Various Artist - Blues Summit
DYEAR=1993
DGENRE=Blues
TTITLE0=Percy Mayfield - Cried Last Night - Baby Please
TTITLE1=Percy Mayfield - Two Years Of Torture
TTITLE2=Joe Turner - T V Mama
TTITLE3=Joe Turner - Roll Me Baby
TTITLE4=Percy Mayfield - Strange Things Happening
TTITLE5=Percy Mayfield - Please Send Me Someone To Love
EXTD=
EXTT0=
EXTT1=
EXTT2=
EXTT3=
EXTT4=
EXTT5=
PLAYORDER=
